<svg width="24" height="24" viewBox="0 0 24 24" fill="none" xmlns="http://www.w3.org/2000/svg">
<rect width="24" height="24" fill="#2F3558"/>
<path d="M9.762 6.468C10.086 6.012 10.53 5.634 11.094 5.334C11.67 5.022 12.324 4.866 13.056 4.866C13.908 4.866 14.676 5.076 15.36 5.496C16.056 5.916 16.602 6.516 16.998 7.296C17.406 8.064 17.61 8.958 17.61 9.978C17.61 10.998 17.406 11.904 16.998 12.696C16.602 13.476 16.056 14.082 15.36 14.514C14.676 14.946 13.908 15.162 13.056 15.162C12.324 15.162 11.676 15.012 11.112 14.712C10.56 14.412 10.11 14.034 9.762 13.578V19.752H7.242V5.028H9.762V6.468ZM15.036 9.978C15.036 9.378 14.91 8.862 14.658 8.43C14.418 7.986 14.094 7.65 13.686 7.422C13.29 7.194 12.858 7.08 12.39 7.08C11.934 7.08 11.502 7.2 11.094 7.44C10.698 7.668 10.374 8.004 10.122 8.448C9.882 8.892 9.762 9.414 9.762 10.014C9.762 10.614 9.882 11.136 10.122 11.58C10.374 12.024 10.698 12.366 11.094 12.606C11.502 12.834 11.934 12.948 12.39 12.948C12.858 12.948 13.29 12.828 13.686 12.588C14.094 12.348 14.418 12.006 14.658 11.562C14.91 11.118 15.036 10.59 15.036 9.978Z" fill="#F4F4F4"/>
</svg>
