<?xml version="1.0" standalone="no"?>
<!DOCTYPE svg PUBLIC "-//W3C//DTD SVG 20010904//EN"
 "http://www.w3.org/TR/2001/REC-SVG-20010904/DTD/svg10.dtd">
<svg version="1.0" xmlns="http://www.w3.org/2000/svg"
 width="700.000000pt" height="700.000000pt" viewBox="0 0 700.000000 700.000000"
 preserveAspectRatio="xMidYMid meet">
<metadata>
Created by potrace 1.14, written by Peter Selinger 2001-2017
</metadata>
<g transform="translate(0.000000,700.000000) scale(0.100000,-0.100000)"
fill="#000000" stroke="none">
<path d="M5379 6816 c-118 -34 -242 -109 -387 -236 -125 -107 -328 -324 -437
-464 -16 -21 -35 -44 -41 -50 -6 -6 -52 -67 -102 -136 -50 -69 -96 -130 -102
-137 -5 -6 -74 -108 -153 -225 -240 -355 -415 -638 -690 -1118 -11 -19 -49
-87 -84 -150 -35 -63 -67 -117 -70 -120 -3 -3 -2 15 2 40 5 25 9 54 10 65 2
11 8 47 14 80 6 33 13 76 15 95 8 61 17 134 21 165 2 17 6 50 9 75 27 222 28
647 1 780 -2 13 -7 42 -10 65 -20 141 -93 336 -166 441 -68 99 -168 182 -282
234 -78 35 -131 50 -242 66 -45 6 -185 6 -241 -1 -27 -3 -85 -11 -129 -16
-374 -47 -967 -311 -1388 -619 -399 -292 -681 -631 -787 -950 -116 -346 -73
-711 117 -978 185 -262 425 -392 731 -395 207 -3 317 23 454 107 91 56 161
118 229 204 167 209 208 372 102 413 -15 6 -44 1 -95 -17 -191 -65 -338 -78
-503 -43 -108 23 -150 39 -219 83 -153 98 -229 239 -229 426 0 117 25 217 89
349 142 293 455 597 823 799 51 29 95 52 97 52 2 0 27 11 56 24 121 55 297
108 408 123 30 4 105 7 167 7 124 -1 163 -15 194 -69 26 -45 31 -85 34 -265 2
-146 -2 -202 -29 -401 -10 -72 -47 -283 -51 -289 -3 -4 -6 -22 -9 -41 -16
-118 -151 -674 -236 -969 -11 -41 -23 -82 -25 -91 -2 -9 -33 -115 -70 -235
-37 -121 -75 -246 -85 -279 -91 -305 -449 -1364 -520 -1540 -4 -11 -17 -45
-28 -75 -167 -459 -356 -952 -467 -1221 -30 -73 -55 -135 -55 -138 0 -7 937
-7 944 0 8 8 206 469 291 679 46 113 116 273 155 355 40 83 89 186 110 230 21
44 61 130 90 190 29 61 69 146 90 190 67 142 133 280 365 760 194 403 645
1296 752 1489 23 43 43 80 43 82 0 2 35 68 79 146 43 79 92 168 108 198 92
168 333 568 453 750 244 373 457 619 638 741 77 51 124 69 185 69 112 0 132
-171 62 -545 -29 -159 -114 -468 -207 -755 -101 -311 -192 -574 -338 -975 -56
-154 -124 -341 -150 -415 -27 -74 -66 -184 -88 -245 -22 -60 -74 -207 -117
-325 -42 -118 -85 -240 -96 -270 -12 -30 -66 -190 -121 -355 -172 -518 -286
-938 -314 -1165 -3 -19 -7 -46 -10 -60 -2 -14 -6 -88 -9 -165 -4 -161 11 -240
69 -360 119 -247 410 -419 696 -412 86 2 103 6 170 38 251 119 646 560 1195
1329 138 194 710 1053 745 1120 18 34 15 122 -6 166 -33 68 -129 105 -204 76
-44 -17 -79 -62 -256 -327 -261 -393 -355 -528 -545 -780 -262 -349 -443 -558
-624 -720 -108 -97 -172 -142 -236 -166 l-48 -18 -11 36 c-17 49 -7 216 19
333 60 263 212 762 518 1695 52 160 98 301 103 315 13 36 215 663 261 810 22
69 46 143 54 165 16 45 128 398 156 490 92 309 116 395 159 566 80 318 105
501 104 749 -4 410 -134 684 -386 808 -153 76 -347 99 -489 58z"/>
</g>
</svg>
