<svg width="17" height="16" viewBox="0 0 17 16" fill="none" xmlns="http://www.w3.org/2000/svg">
<g clip-path="url(#clip0_1913_1108)">
<path d="M14.1 2H2.9C2.26348 2 1.65303 2.25286 1.20294 2.70294C0.752856 3.15303 0.5 3.76348 0.5 4.4V12.4C0.5 13.0365 0.752856 13.647 1.20294 14.0971C1.65303 14.5471 2.26348 14.8 2.9 14.8H14.1C14.7365 14.8 15.347 14.5471 15.7971 14.0971C16.2471 13.647 16.5 13.0365 16.5 12.4V4.4C16.5 3.76348 16.2471 3.15303 15.7971 2.70294C15.347 2.25286 14.7365 2 14.1 2ZM13.564 3.6L8.5 7.4L3.436 3.6H13.564ZM14.1 13.2H2.9C2.68783 13.2 2.48434 13.1157 2.33431 12.9657C2.18429 12.8157 2.1 12.6122 2.1 12.4V4.6L8.02 9.04C8.15848 9.14386 8.3269 9.2 8.5 9.2C8.6731 9.2 8.84152 9.14386 8.98 9.04L14.9 4.6V12.4C14.9 12.6122 14.8157 12.8157 14.6657 12.9657C14.5157 13.1157 14.3122 13.2 14.1 13.2Z" fill="white"/>
</g>
<defs>
<clipPath id="clip0_1913_1108">
<rect width="16" height="16" fill="white" transform="translate(0.5)"/>
</clipPath>
</defs>
</svg>
