<svg width="14" height="14" viewBox="0 0 14 14" fill="none" xmlns="http://www.w3.org/2000/svg">
<path d="M12.997 12.0001L13 11.9996V7.59859C13 5.4456 12.5365 3.78711 10.0195 3.78711C8.80949 3.78711 7.99749 4.45111 7.66599 5.0806H7.63099V3.98811H5.24451V11.9996H7.72949V8.03259C7.72949 6.98809 7.92749 5.9781 9.22099 5.9781C10.4955 5.9781 10.5145 7.17009 10.5145 8.09959V12.0001H12.997Z" fill="#8C9498"/>
<path d="M1.198 3.98828H3.68599V11.9997H1.198V3.98828Z" fill="#8C9498"/>
<path d="M2.44099 0C1.6455 0 1 0.645497 1 1.44099C1 2.23649 1.6455 2.89549 2.44099 2.89549C3.23649 2.89549 3.88199 2.23649 3.88199 1.44099C3.88149 0.645497 3.23599 0 2.44099 0Z" fill="#8C9498"/>
</svg>
