<svg width="17" height="16" viewBox="0 0 17 16" fill="none" xmlns="http://www.w3.org/2000/svg">
<path d="M15.3536 13.7141L15.357 13.7135V8.68386C15.357 6.2233 14.8273 4.32788 11.9508 4.32788C10.5679 4.32788 9.63992 5.08673 9.26107 5.80616H9.22107V4.55759H6.49365V13.7135H9.33364V9.17986C9.33364 7.98615 9.55992 6.83187 11.0382 6.83187C12.4948 6.83187 12.5165 8.19415 12.5165 9.25643V13.7141H15.3536Z" fill="white"/>
<path d="M1.86902 4.55835H4.71243V13.7143H1.86902V4.55835Z" fill="white"/>
<path d="M3.28967 0C2.38053 0 1.64282 0.737711 1.64282 1.64685C1.64282 2.55599 2.38053 3.30913 3.28967 3.30913C4.19881 3.30913 4.93652 2.55599 4.93652 1.64685C4.93595 0.737711 4.19824 0 3.28967 0Z" fill="white"/>
</svg>
