<svg width="55" height="55" viewBox="0 0 55 55" fill="none" xmlns="http://www.w3.org/2000/svg">
<g id="icon">
<g id="vuesax/linear/wallet-money">
<path id="Vector" d="M24.6394 38.6387V43.2908C24.6394 47.2325 20.9727 50.4179 16.4581 50.4179C11.9435 50.4179 8.25391 47.2325 8.25391 43.2908V38.6387C8.25391 42.5803 11.9206 45.3762 16.4581 45.3762C20.9727 45.3762 24.6394 42.5574 24.6394 38.6387Z" stroke="#EBEBEB" stroke-width="2" stroke-linecap="round" stroke-linejoin="round"/>
<path id="Vector_2" d="M24.6348 32.3356C24.6348 33.4814 24.314 34.5355 23.764 35.4522C22.4119 37.6751 19.639 39.0731 16.4306 39.0731C13.2223 39.0731 10.4494 37.6522 9.09727 35.4522C8.54727 34.5355 8.22656 33.4814 8.22656 32.3356C8.22656 30.3647 9.14318 28.6001 10.6098 27.3168C12.0994 26.0106 14.1389 25.2314 16.4077 25.2314C18.6764 25.2314 20.7161 26.0335 22.2057 27.3168C23.7182 28.5772 24.6348 30.3647 24.6348 32.3356Z" stroke="#EBEBEB" stroke-width="2" stroke-linecap="round" stroke-linejoin="round"/>
<path id="Vector_3" d="M24.6394 32.3351V38.6371C24.6394 42.5788 20.9727 45.3746 16.4581 45.3746C11.9435 45.3746 8.25391 42.5559 8.25391 38.6371V32.3351C8.25391 28.3934 11.9206 25.208 16.4581 25.208C18.7269 25.208 20.7665 26.01 22.2561 27.2934C23.7228 28.5767 24.6394 30.3642 24.6394 32.3351Z" stroke="#EBEBEB" stroke-width="2" stroke-linecap="round" stroke-linejoin="round"/>
<path id="Vector_4" d="M50.4163 25.1392V29.8601C50.4163 31.1205 49.408 32.1517 48.1247 32.1975H43.633C41.158 32.1975 38.8893 30.3871 38.683 27.9121C38.5455 26.4684 39.0955 25.1163 40.058 24.1767C40.9059 23.3059 42.0746 22.8018 43.358 22.8018H48.1247C49.408 22.8476 50.4163 23.8787 50.4163 25.1392Z" stroke="#EBEBEB" stroke-width="2" stroke-linecap="round" stroke-linejoin="round"/>
<path id="Vector_5" d="M4.58398 24.0622V19.4788C4.58398 13.2455 8.34232 8.89134 14.1861 8.158C14.7819 8.06634 15.4007 8.02051 16.0423 8.02051H36.6673C37.2632 8.02051 37.8361 8.0434 38.3861 8.13506C44.2986 8.82256 48.1257 13.1997 48.1257 19.4788V22.8018H43.3589C42.0756 22.8018 40.9069 23.3059 40.0589 24.1767C39.0964 25.1163 38.5465 26.4684 38.684 27.9122C38.8902 30.3872 41.1589 32.1976 43.6339 32.1976H48.1257V35.5205C48.1257 42.3955 43.5423 46.9788 36.6673 46.9788H30.9382" stroke="#EBEBEB" stroke-width="2" stroke-linecap="round" stroke-linejoin="round"/>
</g>
</g>
</svg>
