<svg width="46" height="46" viewBox="0 0 46 46" fill="none" xmlns="http://www.w3.org/2000/svg">
<g id="icon">
<g id="Group">
<path id="Vector" d="M19.3774 21.3691H14.2983C13.0908 21.3691 12.1133 22.3466 12.1133 23.5541V33.3674H19.3774V21.3691V21.3691Z" stroke="#EBEBEB" stroke-width="2" stroke-miterlimit="10" stroke-linecap="round" stroke-linejoin="round"/>
<path id="Vector_2" d="M24.4597 12.6494H21.5463C20.3388 12.6494 19.3613 13.6269 19.3613 14.8344V33.3495H26.6255V14.8344C26.6255 13.6269 25.6672 12.6494 24.4597 12.6494Z" stroke="#EBEBEB" stroke-width="2" stroke-miterlimit="10" stroke-linecap="round" stroke-linejoin="round"/>
<path id="Vector_3" d="M31.7198 24.6299H26.6406V33.3508H33.9048V26.8149C33.8856 25.6074 32.9081 24.6299 31.7198 24.6299Z" stroke="#EBEBEB" stroke-width="2" stroke-miterlimit="10" stroke-linecap="round" stroke-linejoin="round"/>
</g>
<path id="Vector_4" d="M17.2526 42.1654H28.7526C38.3359 42.1654 42.1693 38.332 42.1693 28.7487V17.2487C42.1693 7.66536 38.3359 3.83203 28.7526 3.83203H17.2526C7.66927 3.83203 3.83594 7.66536 3.83594 17.2487V28.7487C3.83594 38.332 7.66927 42.1654 17.2526 42.1654Z" stroke="#EBEBEB" stroke-width="2" stroke-linecap="round" stroke-linejoin="round"/>
</g>
</svg>
