<svg width="46" height="46" viewBox="0 0 46 46" fill="none" xmlns="http://www.w3.org/2000/svg">
<g id="icon">
<g id="Group">
<path id="Vector" d="M18.209 26.3551C18.209 28.2143 19.6465 29.7093 21.4098 29.7093H25.0131C26.5465 29.7093 27.7923 28.4059 27.7923 26.7768C27.7923 25.0326 27.0257 24.4001 25.8948 23.9976L20.1257 21.9851C18.9948 21.5826 18.2282 20.9693 18.2282 19.2059C18.2282 17.5959 19.474 16.2734 21.0073 16.2734H24.6106C26.374 16.2734 27.8115 17.7684 27.8115 19.6276" stroke="#EBEBEB" stroke-width="2" stroke-linecap="round" stroke-linejoin="round"/>
<path id="Vector_2" d="M23 14.375V31.625" stroke="#EBEBEB" stroke-width="2" stroke-linecap="round" stroke-linejoin="round"/>
</g>
<path id="Vector_3" d="M42.1673 22.9997C42.1673 33.5797 33.5807 42.1663 23.0007 42.1663C12.4207 42.1663 3.83398 33.5797 3.83398 22.9997C3.83398 12.4197 12.4207 3.83301 23.0007 3.83301" stroke="#EBEBEB" stroke-width="2" stroke-linecap="round" stroke-linejoin="round"/>
<path id="Vector_4" d="M32.584 5.75V13.4167H40.2507" stroke="#EBEBEB" stroke-width="2" stroke-linecap="round" stroke-linejoin="round"/>
<path id="Vector_5" d="M42.1673 3.83301L32.584 13.4163" stroke="#EBEBEB" stroke-width="2" stroke-linecap="round" stroke-linejoin="round"/>
</g>
</svg>
