<svg width="13" height="14" viewBox="0 0 13 14" fill="none" xmlns="http://www.w3.org/2000/svg">
<path d="M13.0004 5.73973C11.7965 5.74261 10.6222 5.36718 9.64336 4.66648V9.55336C9.64303 10.4585 9.36638 11.3419 8.85041 12.0855C8.33444 12.8292 7.60375 13.3975 6.75602 13.7147C5.9083 14.0318 4.98396 14.0826 4.1066 13.8602C3.22924 13.6378 2.44068 13.1529 1.84637 12.4703C1.25205 11.7876 0.880301 10.9398 0.780832 10.0402C0.681364 9.14057 0.858914 8.23203 1.28974 7.43604C1.72057 6.64005 2.38414 5.99456 3.19173 5.58588C3.99931 5.17721 4.91242 5.02482 5.80895 5.1491V7.60703C5.3987 7.47799 4.95816 7.48187 4.55024 7.61814C4.14233 7.7544 3.78791 8.01607 3.53758 8.36578C3.28726 8.71549 3.15383 9.13536 3.15637 9.56542C3.1589 9.99549 3.29726 10.4138 3.55169 10.7605C3.80611 11.1072 4.1636 11.3647 4.57309 11.4962C4.98258 11.6276 5.42313 11.6263 5.83183 11.4924C6.24054 11.3586 6.59649 11.099 6.84887 10.7507C7.10124 10.4025 7.23712 9.98343 7.23711 9.55336V0H9.64336C9.64169 0.203202 9.65872 0.406128 9.69422 0.606211C9.77784 1.05287 9.95169 1.47777 10.2052 1.85493C10.4586 2.23209 10.7864 2.55357 11.1683 2.79973C11.7118 3.15905 12.3489 3.35057 13.0004 3.35043V5.73973Z" fill="white"/>
</svg>
