<svg width="17" height="16" viewBox="0 0 17 16" fill="none" xmlns="http://www.w3.org/2000/svg">
<g clip-path="url(#clip0_2102_37)">
<path d="M4.71346 13.8379L4.97489 13.9676C6.0409 14.5969 7.25961 14.9258 8.49992 14.919C12.3182 14.9103 15.4554 11.7895 15.4554 8.00011C15.4554 6.16878 14.7225 4.41009 13.4193 3.11366C12.1178 1.80383 10.3396 1.06567 8.48642 1.06567C4.68557 1.06567 1.55835 4.16966 1.55835 7.94131C1.55835 7.97115 1.55835 8.00054 1.55879 8.03039C1.57023 9.31272 1.93163 10.568 2.60454 11.6628L2.77882 11.9222L2.08166 14.4736L4.71346 13.8379Z" fill="#F60109"/>
<path d="M14.1949 2.33523C12.7113 0.832962 10.676 -0.00982963 8.55659 8.65243e-05H8.54308C4.17842 0.000100071 0.586718 3.56463 0.586718 7.89627C0.586718 7.91659 0.587155 7.93649 0.587155 7.95682C0.603595 9.33401 0.962835 10.6858 1.63291 11.8919L0.5 16L4.72221 14.9189C5.88859 15.5544 7.19989 15.882 8.53045 15.8703C12.9113 15.8465 16.5025 12.2617 16.4999 7.91357C16.5104 5.8245 15.6803 3.81543 14.1949 2.33523ZM8.55659 14.5297C7.37715 14.5358 6.21847 14.2218 5.20585 13.6216L4.94441 13.4919L2.43027 14.1406L3.08386 11.6757L2.90957 11.4162C2.26217 10.3788 1.91918 9.18272 1.91916 7.96243C1.91916 4.36376 4.90303 1.40246 8.52915 1.40246C12.1553 1.40246 15.1391 4.36376 15.1391 7.96243C15.1391 10.2284 13.9561 12.3395 12.0163 13.5351C10.9903 14.1874 9.7968 14.5327 8.57839 14.5297M12.4084 9.72977L11.9291 9.51356C11.9291 9.51356 11.232 9.21085 10.7962 8.99465C10.7527 8.99465 10.7091 8.9514 10.6655 8.9514C10.5581 8.95403 10.4531 8.9838 10.3605 9.03789C10.2677 9.09194 10.3169 9.08113 9.70691 9.77301C9.66553 9.85388 9.58056 9.90448 9.48906 9.90275H9.44548C9.37998 9.89186 9.31927 9.86174 9.27119 9.81626L9.05333 9.72977C8.58586 9.53336 8.15783 9.25506 7.78971 8.90816C7.70257 8.82167 7.57186 8.73517 7.4847 8.64869C7.16214 8.34203 6.88357 7.99282 6.65683 7.61087L6.61325 7.52439C6.5754 7.47153 6.546 7.41318 6.5261 7.35141C6.51471 7.2765 6.53013 7.2 6.56967 7.1352C6.60933 7.07033 6.74397 6.91897 6.87468 6.78925C7.00541 6.65953 7.00541 6.57305 7.09255 6.48655C7.13734 6.42482 7.16829 6.35429 7.18332 6.2797C7.19835 6.20511 7.19711 6.12819 7.17969 6.05411C6.97663 5.49457 6.74392 4.94606 6.48253 4.41089C6.41247 4.30275 6.30332 4.22538 6.17753 4.19467H5.69822C5.61108 4.19467 5.52394 4.23791 5.43678 4.23791L5.39321 4.28115C5.30607 4.3244 5.21893 4.41089 5.13177 4.45413C5.04463 4.49737 5.00106 4.62711 4.91392 4.71359C4.60931 5.09561 4.44077 5.56699 4.43462 6.05411C4.43944 6.39677 4.51352 6.73498 4.65247 7.04871L4.69605 7.17843C5.0873 8.00859 5.63447 8.75709 6.30825 9.38383L6.48253 9.5568C6.60936 9.66105 6.72607 9.77688 6.83111 9.90275C7.73394 10.6824 8.80626 11.2446 9.964 11.546C10.0947 11.5892 10.269 11.5892 10.3997 11.6325H10.8355C11.0632 11.6213 11.286 11.5624 11.489 11.4595C11.5958 11.4115 11.6977 11.3536 11.794 11.2865L11.8812 11.2C11.9683 11.1135 12.0555 11.0703 12.1426 10.9838C12.2278 10.9085 12.3012 10.8211 12.3605 10.7244C12.4442 10.5306 12.503 10.3274 12.5348 10.119V9.81626C12.4956 9.78134 12.4516 9.75221 12.4041 9.72977" fill="white"/>
</g>
<defs>
<clipPath id="clip0_2102_37">
<rect width="16" height="16" fill="white" transform="translate(0.5)"/>
</clipPath>
</defs>
</svg>
