<svg width="16" height="14" viewBox="0 0 16 14" fill="none" xmlns="http://www.w3.org/2000/svg">
<path d="M15.0296 3.39289C14.8579 2.74621 14.3519 2.23691 13.7094 2.06407C12.5448 1.75 7.875 1.75 7.875 1.75C7.875 1.75 3.20524 1.75 2.04064 2.06407C1.39814 2.23694 0.892118 2.74621 0.720372 3.39289C0.408325 4.56504 0.408325 7.01061 0.408325 7.01061C0.408325 7.01061 0.408325 9.45618 0.720372 10.6283C0.892118 11.275 1.39814 11.7631 2.04064 11.9359C3.20524 12.25 7.875 12.25 7.875 12.25C7.875 12.25 12.5448 12.25 13.7094 11.9359C14.3519 11.7631 14.8579 11.275 15.0296 10.6283C15.3417 9.45618 15.3417 7.01061 15.3417 7.01061C15.3417 7.01061 15.3417 4.56504 15.0296 3.39289ZM6.34772 9.231V4.79021L10.2507 7.01066L6.34772 9.231Z" fill="white"/>
</svg>
