<svg width="24" height="24" viewBox="0 0 24 24" fill="none" xmlns="http://www.w3.org/2000/svg">
<path fill-rule="evenodd" clip-rule="evenodd" d="M8.00172 20.1756C7.57198 21.2763 7.14224 22.2612 6.79845 23.0432L6.74115 23.1881H3.47515L3.61839 22.8694C4.87896 19.7991 6.65521 14.9039 7.80117 10.8487C8.37416 8.79212 8.77525 6.96728 8.88984 5.69279C8.94714 5.05555 8.91849 4.56313 8.83254 4.27347C8.77525 4.12865 8.71795 4.04175 8.66065 4.01278C8.60335 3.98382 8.37416 3.89692 8.25956 3.92589C6.08222 3.78106 3.13136 5.98245 2.58702 7.89418C2.09999 9.54523 3.3892 10.1825 3.79029 10.2694C4.53517 10.4432 4.90761 10.4721 5.88168 10.1245C5.93898 10.0956 6.02493 10.0666 6.11087 10.1245C6.22547 10.1535 6.25412 10.2694 6.28277 10.3273C6.28277 10.3852 6.28277 10.4432 6.28277 10.5011C6.28277 10.559 6.25412 10.588 6.25412 10.6459C6.19682 10.8487 6.05357 11.0804 5.88168 11.3411C5.50924 11.8625 4.87896 12.4418 4.07678 12.5577C2.70162 12.7604 1.6989 12.297 1.03997 11.457C0.381038 10.6459 0.123196 9.66109 0.32374 8.4735C0.839425 5.3452 5.73843 2.68036 8.17361 2.4776C9.14769 2.33278 9.92121 2.50657 10.4942 2.94105C11.0672 3.37554 11.411 4.07071 11.5542 4.91072C11.8121 6.21417 11.6688 7.89418 11.325 9.74798C12.2704 8.03901 13.3878 6.12728 14.5051 4.53417C15.2213 3.4914 15.9662 2.53553 16.6824 1.84036C17.37 1.14518 18.0576 0.652767 18.7165 0.56587C19.2895 0.536904 19.8052 0.623801 20.2349 0.884492C20.6074 1.08725 20.9511 1.46381 21.1517 1.95622C21.5814 2.97002 21.5528 4.4183 21.0657 6.27211C20.7506 7.54659 19.9198 10.0666 18.6879 13.8611C18.0576 15.7439 17.5992 17.2211 17.2554 18.3508C16.9116 19.4804 16.7397 20.1756 16.7111 20.5232C16.6824 20.8418 16.6824 21.0736 16.7397 21.1894C16.7397 21.2474 16.7684 21.2474 16.7684 21.2763C16.883 21.2763 17.0549 21.1894 17.284 21.0446C17.5132 20.8708 17.7711 20.6391 18.0576 20.3784C18.6306 19.7991 19.2322 19.046 19.8338 18.2639C21.0084 16.6997 22.0398 15.0777 22.2117 14.817L22.3836 14.5853C22.6701 14.1797 23.329 14.3246 23.3863 14.8459V14.9039C23.415 15.0487 23.3863 15.1935 23.3004 15.3094L22.9852 15.8018C22.9566 15.8308 22.9279 15.9177 22.842 16.0046C22.4695 16.5839 21.4382 18.206 20.2636 19.7991C19.576 20.726 18.8311 21.6818 18.1722 22.406C17.8284 22.7536 17.5132 23.0722 17.1981 23.3039C16.9116 23.5356 16.5965 23.7094 16.3386 23.7384C15.7943 23.8253 15.1354 23.6515 14.591 23.3039C14.0467 22.9563 13.617 22.377 13.5024 21.6529C13.4451 21.1894 13.5024 20.5232 13.6456 19.7991C13.7888 19.046 14.0467 18.177 14.3332 17.2501C14.8202 15.6859 15.4792 13.919 16.1094 12.1521C16.2527 11.7756 16.3673 11.428 16.5105 11.0514C17.284 8.93695 17.9716 6.96728 18.3441 5.4321C18.516 4.67899 18.6306 4.07072 18.6019 3.63623C18.6019 3.4045 18.5733 3.25968 18.516 3.17278C18.4587 3.08588 18.43 3.02795 18.3441 3.02795C18.1722 2.97002 17.9143 3.02795 17.5992 3.25968C17.284 3.46244 16.9116 3.83899 16.5105 4.30244C15.7083 5.25831 14.8202 6.70659 13.8461 8.41556C11.984 11.7756 9.92121 16.1204 8.08767 20.0018L8.00172 20.1756Z" fill="#F60109"/>
</svg>
