<svg width="182" height="48" viewBox="0 0 182 48" fill="none" xmlns="http://www.w3.org/2000/svg">
<path d="M8.36 16.04C9.08 15.0267 10.0667 14.1867 11.32 13.52C12.6 12.8267 14.0533 12.48 15.68 12.48C17.5733 12.48 19.28 12.9467 20.8 13.88C22.3467 14.8133 23.56 16.1467 24.44 17.88C25.3467 19.5867 25.8 21.5733 25.8 23.84C25.8 26.1067 25.3467 28.12 24.44 29.88C23.56 31.6133 22.3467 32.96 20.8 33.92C19.28 34.88 17.5733 35.36 15.68 35.36C14.0533 35.36 12.6133 35.0267 11.36 34.36C10.1333 33.6933 9.13333 32.8533 8.36 31.84V45.56H2.76V12.84H8.36V16.04ZM20.08 23.84C20.08 22.5067 19.8 21.36 19.24 20.4C18.7067 19.4133 17.9867 18.6667 17.08 18.16C16.2 17.6533 15.24 17.4 14.2 17.4C13.1867 17.4 12.2267 17.6667 11.32 18.2C10.44 18.7067 9.72 19.4533 9.16 20.44C8.62667 21.4267 8.36 22.5867 8.36 23.92C8.36 25.2533 8.62667 26.4133 9.16 27.4C9.72 28.3867 10.44 29.1467 11.32 29.68C12.2267 30.1867 13.1867 30.44 14.2 30.44C15.24 30.44 16.2 30.1733 17.08 29.64C17.9867 29.1067 18.7067 28.3467 19.24 27.36C19.8 26.3733 20.08 25.2 20.08 23.84ZM26.8294 23.84C26.8294 21.6 27.2694 19.6133 28.1494 17.88C29.056 16.1467 30.2694 14.8133 31.7894 13.88C33.336 12.9467 35.056 12.48 36.9494 12.48C38.6027 12.48 40.0427 12.8133 41.2694 13.48C42.5227 14.1467 43.5227 14.9867 44.2694 16V12.84H49.9094V35H44.2694V31.76C43.5494 32.8 42.5494 33.6667 41.2694 34.36C40.016 35.0267 38.5627 35.36 36.9094 35.36C35.0427 35.36 33.336 34.88 31.7894 33.92C30.2694 32.96 29.056 31.6133 28.1494 29.88C27.2694 28.12 26.8294 26.1067 26.8294 23.84ZM44.2694 23.92C44.2694 22.56 44.0027 21.4 43.4694 20.44C42.936 19.4533 42.216 18.7067 41.3094 18.2C40.4027 17.6667 39.4294 17.4 38.3894 17.4C37.3494 17.4 36.3894 17.6533 35.5094 18.16C34.6294 18.6667 33.9094 19.4133 33.3494 20.4C32.816 21.36 32.5494 22.5067 32.5494 23.84C32.5494 25.1733 32.816 26.3467 33.3494 27.36C33.9094 28.3467 34.6294 29.1067 35.5094 29.64C36.416 30.1733 37.376 30.44 38.3894 30.44C39.4294 30.44 40.4027 30.1867 41.3094 29.68C42.216 29.1467 42.936 28.4 43.4694 27.44C44.0027 26.4533 44.2694 25.28 44.2694 23.92ZM52.3387 23.92C52.3387 21.6267 52.8054 19.6267 53.7387 17.92C54.6721 16.1867 55.9654 14.8533 57.6187 13.92C59.2721 12.96 61.1654 12.48 63.2987 12.48C66.0454 12.48 68.3121 13.1733 70.0988 14.56C71.9121 15.92 73.1254 17.84 73.7387 20.32H67.6988C67.3788 19.36 66.8321 18.6133 66.0587 18.08C65.3121 17.52 64.3788 17.24 63.2588 17.24C61.6587 17.24 60.3921 17.8267 59.4587 19C58.5254 20.1467 58.0587 21.7867 58.0587 23.92C58.0587 26.0267 58.5254 27.6667 59.4587 28.84C60.3921 29.9867 61.6587 30.56 63.2588 30.56C65.5254 30.56 67.0054 29.5467 67.6988 27.52H73.7387C73.1254 29.92 71.9121 31.8267 70.0988 33.24C68.2854 34.6533 66.0187 35.36 63.2987 35.36C61.1654 35.36 59.2721 34.8933 57.6187 33.96C55.9654 33 54.6721 31.6667 53.7387 29.96C52.8054 28.2267 52.3387 26.2133 52.3387 23.92ZM74.8012 23.84C74.8012 21.6 75.2412 19.6133 76.1212 17.88C77.0279 16.1467 78.2412 14.8133 79.7612 13.88C81.3079 12.9467 83.0279 12.48 84.9212 12.48C86.5746 12.48 88.0146 12.8133 89.2412 13.48C90.4946 14.1467 91.4946 14.9867 92.2412 16V12.84H97.8812V35H92.2412V31.76C91.5212 32.8 90.5212 33.6667 89.2412 34.36C87.9879 35.0267 86.5346 35.36 84.8812 35.36C83.0146 35.36 81.3079 34.88 79.7612 33.92C78.2412 32.96 77.0279 31.6133 76.1212 29.88C75.2412 28.12 74.8012 26.1067 74.8012 23.84ZM92.2412 23.92C92.2412 22.56 91.9746 21.4 91.4412 20.44C90.9079 19.4533 90.1879 18.7067 89.2812 18.2C88.3746 17.6667 87.4012 17.4 86.3612 17.4C85.3212 17.4 84.3612 17.6533 83.4812 18.16C82.6012 18.6667 81.8812 19.4133 81.3212 20.4C80.7879 21.36 80.5212 22.5067 80.5212 23.84C80.5212 25.1733 80.7879 26.3467 81.3212 27.36C81.8812 28.3467 82.6012 29.1067 83.4812 29.64C84.3879 30.1733 85.3479 30.44 86.3612 30.44C87.4012 30.44 88.3746 30.1867 89.2812 29.68C90.1879 29.1467 90.9079 28.4 91.4412 27.44C91.9746 26.4533 92.2412 25.28 92.2412 23.92ZM114.031 12.52C116.671 12.52 118.804 13.36 120.431 15.04C122.057 16.6933 122.871 19.0133 122.871 22V35H117.271V22.76C117.271 21 116.831 19.6533 115.951 18.72C115.071 17.76 113.871 17.28 112.351 17.28C110.804 17.28 109.577 17.76 108.671 18.72C107.791 19.6533 107.351 21 107.351 22.76V35H101.751V12.84H107.351V15.6C108.097 14.64 109.044 13.8933 110.191 13.36C111.364 12.8 112.644 12.52 114.031 12.52ZM147.196 23.44C147.196 24.24 147.143 24.96 147.036 25.6H130.836C130.969 27.2 131.529 28.4533 132.516 29.36C133.503 30.2667 134.716 30.72 136.156 30.72C138.236 30.72 139.716 29.8267 140.596 28.04H146.636C145.996 30.1733 144.769 31.9333 142.956 33.32C141.143 34.68 138.916 35.36 136.276 35.36C134.143 35.36 132.223 34.8933 130.516 33.96C128.836 33 127.516 31.6533 126.556 29.92C125.623 28.1867 125.156 26.1867 125.156 23.92C125.156 21.6267 125.623 19.6133 126.556 17.88C127.489 16.1467 128.796 14.8133 130.476 13.88C132.156 12.9467 134.089 12.48 136.276 12.48C138.383 12.48 140.263 12.9333 141.916 13.84C143.596 14.7467 144.889 16.04 145.796 17.72C146.729 19.3733 147.196 21.28 147.196 23.44ZM141.396 21.84C141.369 20.4 140.849 19.2533 139.836 18.4C138.823 17.52 137.583 17.08 136.116 17.08C134.729 17.08 133.556 17.5067 132.596 18.36C131.663 19.1867 131.089 20.3467 130.876 21.84H141.396ZM155.283 5.4V35H149.683V5.4H155.283ZM179.816 23.44C179.816 24.24 179.763 24.96 179.656 25.6H163.456C163.59 27.2 164.15 28.4533 165.136 29.36C166.123 30.2667 167.336 30.72 168.776 30.72C170.856 30.72 172.336 29.8267 173.216 28.04H179.256C178.616 30.1733 177.39 31.9333 175.576 33.32C173.763 34.68 171.536 35.36 168.896 35.36C166.763 35.36 164.843 34.8933 163.136 33.96C161.456 33 160.136 31.6533 159.176 29.92C158.243 28.1867 157.776 26.1867 157.776 23.92C157.776 21.6267 158.243 19.6133 159.176 17.88C160.11 16.1467 161.416 14.8133 163.096 13.88C164.776 12.9467 166.71 12.48 168.896 12.48C171.003 12.48 172.883 12.9333 174.536 13.84C176.216 14.7467 177.51 16.04 178.416 17.72C179.35 19.3733 179.816 21.28 179.816 23.44ZM174.016 21.84C173.99 20.4 173.47 19.2533 172.456 18.4C171.443 17.52 170.203 17.08 168.736 17.08C167.35 17.08 166.176 17.5067 165.216 18.36C164.283 19.1867 163.71 20.3467 163.496 21.84H174.016Z" fill="#F4F4F4"/>
</svg>
